<svg id="Flat" height="512" viewBox="0 0 512 512" width="512" xmlns="http://www.w3.org/2000/svg"><path d="m392 24h64v112h-64z" fill="#c3c6c7"/><path d="m136 464-24 24-24-24v-408h336v408l-24 24-24-24-24 24-24-24-24 24-24-24-24 24-24-24-24 24-24-24-24 24z" fill="#e9eef2"/><circle cx="136" cy="152" fill="#c76f1e" r="16"/><circle cx="376" cy="152" fill="#c76f1e" r="16"/><circle cx="256" cy="160" fill="#ffb632" r="72"/><path d="m256 152a8 8 0 1 1 8-8 8 8 0 0 0 16 0 24.039 24.039 0 0 0 -16-22.624v-1.376a8 8 0 0 0 -16 0v1.376a24 24 0 0 0 8 46.624 8 8 0 1 1 -8 8 8 8 0 0 0 -16 0 24.039 24.039 0 0 0 16 22.624v1.376a8 8 0 0 0 16 0v-1.376a24 24 0 0 0 -8-46.624z" fill="#c76f1e"/><g fill="#9aa3a8"><path d="m296 272h-160a8 8 0 0 1 0-16h160a8 8 0 0 1 0 16z"/><path d="m376 272h-32a8 8 0 0 1 0-16h32a8 8 0 0 1 0 16z"/><path d="m296 304h-160a8 8 0 0 1 0-16h160a8 8 0 0 1 0 16z"/><path d="m376 304h-32a8 8 0 0 1 0-16h32a8 8 0 0 1 0 16z"/><path d="m296 336h-160a8 8 0 0 1 0-16h160a8 8 0 0 1 0 16z"/><path d="m376 336h-32a8 8 0 0 1 0-16h32a8 8 0 0 1 0 16z"/><path d="m296 368h-160a8 8 0 0 1 0-16h160a8 8 0 0 1 0 16z"/><path d="m376 368h-32a8 8 0 0 1 0-16h32a8 8 0 0 1 0 16z"/><path d="m296 400h-160a8 8 0 0 1 0-16h160a8 8 0 0 1 0 16z"/><path d="m376 400h-32a8 8 0 0 1 0-16h32a8 8 0 0 1 0 16z"/><path d="m296 432h-160a8 8 0 0 1 0-16h160a8 8 0 0 1 0 16z"/><path d="m376 432h-32a8 8 0 0 1 0-16h32a8 8 0 0 1 0 16z"/></g><path d="m456 24h-336a32 32 0 0 0 -32 32h336a32 32 0 0 1 32-32z" fill="#dadcde"/></svg>