<?xml version="1.0" standalone="no"?>
<!DOCTYPE svg PUBLIC "-//W3C//DTD SVG 20010904//EN"
 "http://www.w3.org/TR/2001/REC-SVG-20010904/DTD/svg10.dtd">
<svg version="1.0" xmlns="http://www.w3.org/2000/svg"
 width="1136.000000pt" height="653.000000pt" viewBox="0 0 1136.000000 653.000000"
 preserveAspectRatio="xMidYMid meet">

<g transform="translate(0.000000,653.000000) scale(0.100000,-0.100000)"
fill="#000000" stroke="none">
<path d="M3005 6230 c3 -5 8 -10 11 -10 2 0 4 5 4 10 0 6 -5 10 -11 10 -5 0
-7 -4 -4 -10z"/>
<path d="M3240 6229 c0 -5 5 -7 10 -4 6 3 10 8 10 11 0 2 -4 4 -10 4 -5 0 -10
-5 -10 -11z"/>
<path d="M3715 6230 c3 -5 8 -10 11 -10 2 0 4 5 4 10 0 6 -5 10 -11 10 -5 0
-7 -4 -4 -10z"/>
<path d="M3950 6229 c0 -5 5 -7 10 -4 6 3 10 8 10 11 0 2 -4 4 -10 4 -5 0 -10
-5 -10 -11z"/>
<path d="M5130 6229 c0 -5 5 -7 10 -4 6 3 10 8 10 11 0 2 -4 4 -10 4 -5 0 -10
-5 -10 -11z"/>
<path d="M5605 6230 c3 -5 8 -10 11 -10 2 0 4 5 4 10 0 6 -5 10 -11 10 -5 0
-7 -4 -4 -10z"/>
<path d="M7020 6229 c0 -5 5 -7 10 -4 6 3 10 8 10 11 0 2 -4 4 -10 4 -5 0 -10
-5 -10 -11z"/>
<path d="M7495 6230 c3 -5 8 -10 11 -10 2 0 4 5 4 10 0 6 -5 10 -11 10 -5 0
-7 -4 -4 -10z"/>
<path d="M3005 6000 c-3 -5 -1 -10 4 -10 6 0 11 5 11 10 0 6 -2 10 -4 10 -3 0
-8 -4 -11 -10z"/>
<path d="M3240 6000 c0 -5 5 -10 11 -10 5 0 7 5 4 10 -3 6 -8 10 -11 10 -2 0
-4 -4 -4 -10z"/>
<path d="M3715 6000 c-3 -5 -1 -10 4 -10 6 0 11 5 11 10 0 6 -2 10 -4 10 -3 0
-8 -4 -11 -10z"/>
<path d="M3950 6000 c0 -5 5 -10 11 -10 5 0 7 5 4 10 -3 6 -8 10 -11 10 -2 0
-4 -4 -4 -10z"/>
<path d="M4185 6000 c-3 -5 -1 -10 4 -10 6 0 11 5 11 10 0 6 -2 10 -4 10 -3 0
-8 -4 -11 -10z"/>
<path d="M4660 6000 c0 -5 5 -10 11 -10 5 0 7 5 4 10 -3 6 -8 10 -11 10 -2 0
-4 -4 -4 -10z"/>
<path d="M4895 6000 c-3 -5 -1 -10 4 -10 6 0 11 5 11 10 0 6 -2 10 -4 10 -3 0
-8 -4 -11 -10z"/>
<path d="M5130 6000 c0 -5 5 -10 11 -10 5 0 7 5 4 10 -3 6 -8 10 -11 10 -2 0
-4 -4 -4 -10z"/>
<path d="M5605 6000 c-3 -5 -1 -10 4 -10 6 0 11 5 11 10 0 6 -2 10 -4 10 -3 0
-8 -4 -11 -10z"/>
<path d="M5840 6000 c0 -5 5 -10 11 -10 5 0 7 5 4 10 -3 6 -8 10 -11 10 -2 0
-4 -4 -4 -10z"/>
<path d="M6081 5994 c0 -11 3 -14 6 -6 3 7 2 16 -1 19 -3 4 -6 -2 -5 -13z"/>
<path d="M6550 6000 c0 -5 5 -10 11 -10 5 0 7 5 4 10 -3 6 -8 10 -11 10 -2 0
-4 -4 -4 -10z"/>
<path d="M7020 6000 c0 -5 5 -10 11 -10 5 0 7 5 4 10 -3 6 -8 10 -11 10 -2 0
-4 -4 -4 -10z"/>
<path d="M7495 6000 c-3 -5 -1 -10 4 -10 6 0 11 5 11 10 0 6 -2 10 -4 10 -3 0
-8 -4 -11 -10z"/>
<path d="M7971 5994 c0 -11 3 -14 6 -6 3 7 2 16 -1 19 -3 4 -6 -2 -5 -13z"/>
<path d="M3710 5760 c0 -5 5 -10 10 -10 6 0 10 5 10 10 0 6 -4 10 -10 10 -5 0
-10 -4 -10 -10z"/>
<path d="M4420 5760 c0 -5 5 -10 10 -10 6 0 10 5 10 10 0 6 -4 10 -10 10 -5 0
-10 -4 -10 -10z"/>
<path d="M5130 5760 c0 -5 5 -10 11 -10 5 0 7 5 4 10 -3 6 -8 10 -11 10 -2 0
-4 -4 -4 -10z"/>
<path d="M5605 5760 c-3 -5 -1 -10 4 -10 6 0 11 5 11 10 0 6 -2 10 -4 10 -3 0
-8 -4 -11 -10z"/>
<path d="M6310 5760 c0 -5 5 -10 10 -10 6 0 10 5 10 10 0 6 -4 10 -10 10 -5 0
-10 -4 -10 -10z"/>
<path d="M7020 5760 c0 -5 5 -10 10 -10 6 0 10 5 10 10 0 6 -4 10 -10 10 -5 0
-10 -4 -10 -10z"/>
<path d="M7730 5760 c0 -5 5 -10 10 -10 6 0 10 5 10 10 0 6 -4 10 -10 10 -5 0
-10 -4 -10 -10z"/>
<path d="M8205 5760 c-3 -5 -1 -10 4 -10 6 0 11 5 11 10 0 6 -2 10 -4 10 -3 0
-8 -4 -11 -10z"/>
<path d="M2770 5519 c0 -5 5 -7 10 -4 6 3 10 8 10 11 0 2 -4 4 -10 4 -5 0 -10
-5 -10 -11z"/>
<path d="M3005 5520 c3 -5 8 -10 11 -10 2 0 4 5 4 10 0 6 -5 10 -11 10 -5 0
-7 -4 -4 -10z"/>
<path d="M3240 5519 c0 -5 5 -7 10 -4 6 3 10 8 10 11 0 2 -4 4 -10 4 -5 0 -10
-5 -10 -11z"/>
<path d="M3715 5520 c3 -5 8 -10 11 -10 2 0 4 5 4 10 0 6 -5 10 -11 10 -5 0
-7 -4 -4 -10z"/>
<path d="M3950 5519 c0 -5 5 -7 10 -4 6 3 10 8 10 11 0 2 -4 4 -10 4 -5 0 -10
-5 -10 -11z"/>
<path d="M4180 5522 c0 -4 -16 -6 -36 -4 -93 11 -247 -46 -324 -120 -60 -58
-103 -110 -106 -128 -1 -8 -10 -35 -19 -59 -79 -214 35 -469 251 -562 l79 -34
234 -3 234 -4 -21 30 c-12 16 -28 35 -37 42 -8 7 -15 20 -15 29 0 10 -11 28
-25 41 -22 20 -29 22 -43 12 -9 -7 -42 -25 -72 -40 -49 -24 -66 -27 -160 -27
-91 0 -112 4 -155 25 -61 30 -155 119 -154 146 1 19 157 164 177 164 5 0 26
-18 46 -40 41 -46 49 -45 105 14 19 19 38 33 43 30 4 -3 7 -56 6 -117 l-2
-112 -3 98 c-3 68 -7 97 -16 97 -7 0 -34 -23 -60 -50 l-49 -50 6 -68 c3 -37 5
-68 6 -69 0 -2 25 -3 55 -3 42 0 55 3 55 15 0 13 3 13 20 3 14 -9 16 -14 7
-20 -16 -10 -147 -9 -172 2 -17 7 -17 9 -2 9 15 1 17 12 17 89 0 84 -1 90 -28
115 -34 33 -43 33 -68 6 -15 -17 -18 -33 -16 -83 2 -33 6 -69 9 -79 5 -18 3
-18 -19 -3 -14 9 -31 27 -38 41 -11 21 -11 27 2 42 8 10 19 25 23 33 7 12 5
12 -11 -1 -10 -9 -29 -25 -41 -35 -13 -10 -23 -24 -23 -30 0 -21 90 -95 147
-121 162 -74 370 5 453 172 21 43 25 64 25 145 0 82 -4 103 -26 151 -33 69
-91 129 -161 166 -48 25 -63 28 -153 28 -121 0 -169 -18 -245 -95 -71 -70
-103 -144 -104 -240 -1 -69 16 -140 33 -140 7 0 40 35 76 80 19 23 18 23 -18
-4 -52 -38 -60 -27 -55 71 4 95 31 155 98 217 88 82 214 107 327 64 77 -29
152 -104 181 -181 24 -64 29 -123 10 -130 -10 -3 -10 -7 0 -19 31 -38 -66
-197 -142 -234 l-31 -15 28 21 c27 21 27 23 27 139 0 102 -3 120 -18 134 -25
23 -31 22 -64 -10 -20 -19 -28 -22 -28 -12 0 9 13 28 30 44 28 27 30 28 49 11
24 -21 27 -16 36 57 l7 58 -53 -7 c-63 -8 -77 -17 -60 -38 10 -12 0 -28 -61
-92 l-74 -77 -44 39 -43 39 -93 -100 c-90 -96 -95 -99 -109 -80 -26 33 -37 97
-33 185 5 98 32 163 100 236 93 100 261 141 391 94 115 -41 192 -119 238 -240
36 -94 17 -244 -41 -322 -11 -15 -20 -33 -20 -41 0 -20 43 -57 66 -57 11 0 33
-13 49 -30 16 -16 32 -30 37 -30 15 0 9 401 -7 463 -43 165 -168 295 -322 336
-24 7 -43 16 -43 21 0 6 -4 10 -10 10 -5 0 -10 -4 -10 -8z"/>
<path d="M4660 5519 c0 -5 5 -7 10 -4 6 3 10 8 10 11 0 2 -4 4 -10 4 -5 0 -10
-5 -10 -11z"/>
<path d="M4895 5520 c3 -5 8 -10 11 -10 2 0 4 5 4 10 0 6 -5 10 -11 10 -5 0
-7 -4 -4 -10z"/>
<path d="M5130 5519 c0 -5 5 -7 10 -4 6 3 10 8 10 11 0 2 -4 4 -10 4 -5 0 -10
-5 -10 -11z"/>
<path d="M5605 5520 c3 -5 8 -10 11 -10 2 0 4 5 4 10 0 6 -5 10 -11 10 -5 0
-7 -4 -4 -10z"/>
<path d="M5840 5519 c0 -5 5 -7 10 -4 6 3 10 8 10 11 0 2 -4 4 -10 4 -5 0 -10
-5 -10 -11z"/>
<path d="M6075 5520 c3 -5 8 -10 11 -10 2 0 4 5 4 10 0 6 -5 10 -11 10 -5 0
-7 -4 -4 -10z"/>
<path d="M6550 5519 c0 -5 5 -7 10 -4 6 3 10 8 10 11 0 2 -4 4 -10 4 -5 0 -10
-5 -10 -11z"/>
<path d="M6785 5520 c3 -5 8 -10 11 -10 2 0 4 5 4 10 0 6 -5 10 -11 10 -5 0
-7 -4 -4 -10z"/>
<path d="M7020 5519 c0 -5 5 -7 10 -4 6 3 10 8 10 11 0 2 -4 4 -10 4 -5 0 -10
-5 -10 -11z"/>
<path d="M7495 5520 c3 -5 8 -10 11 -10 2 0 4 5 4 10 0 6 -5 10 -11 10 -5 0
-7 -4 -4 -10z"/>
<path d="M7965 5520 c3 -5 8 -10 11 -10 2 0 4 5 4 10 0 6 -5 10 -11 10 -5 0
-7 -4 -4 -10z"/>
<path d="M5692 5374 c-27 -19 -29 -64 -4 -87 60 -55 149 26 92 83 -24 24 -57
26 -88 4z"/>
<path d="M4830 5348 c-51 -26 -70 -56 -70 -113 0 -50 19 -78 62 -95 81 -30 81
-30 68 -45 -16 -19 -37 -19 -74 0 -15 8 -32 15 -36 15 -8 0 -40 -72 -40 -89 0
-14 90 -41 137 -41 93 0 153 54 153 136 0 54 -25 84 -86 104 -33 10 -50 21
-52 34 -4 16 0 18 29 13 19 -3 42 -8 51 -12 13 -5 21 2 33 31 20 48 16 58 -33
72 -57 17 -92 15 -142 -10z"/>
<path d="M6422 5178 l3 -183 100 -3 c139 -4 145 -2 145 53 l0 45 -60 0 c-53 0
-60 2 -60 20 0 17 7 20 50 20 l50 0 0 45 0 45 -51 0 c-47 0 -50 2 -47 23 3 19
10 22 56 25 l52 3 0 45 0 44 -120 0 -120 0 2 -182z"/>
<path d="M6227 5334 c-4 -4 -7 -24 -7 -45 0 -28 -5 -38 -20 -42 -16 -4 -20
-14 -20 -47 0 -33 4 -43 20 -47 18 -5 20 -14 20 -84 l0 -79 60 0 60 0 0 79 c0
70 2 79 20 84 29 7 29 83 1 92 -15 4 -21 17 -23 48 l-3 42 -50 3 c-28 2 -54 0
-58 -4z"/>
<path d="M3005 5290 c-3 -5 -1 -10 4 -10 6 0 11 5 11 10 0 6 -2 10 -4 10 -3 0
-8 -4 -11 -10z"/>
<path d="M3240 5290 c0 -5 5 -10 11 -10 5 0 7 5 4 10 -3 6 -8 10 -11 10 -2 0
-4 -4 -4 -10z"/>
<path d="M5130 5290 c0 -5 5 -10 11 -10 5 0 7 5 4 10 -3 6 -8 10 -11 10 -2 0
-4 -4 -4 -10z"/>
<path d="M5605 5290 c-3 -5 -1 -10 4 -10 6 0 11 5 11 10 0 6 -2 10 -4 10 -3 0
-8 -4 -11 -10z"/>
<path d="M5840 5290 c0 -5 5 -10 11 -10 5 0 7 5 4 10 -3 6 -8 10 -11 10 -2 0
-4 -4 -4 -10z"/>
<path d="M7020 5290 c0 -5 5 -10 10 -10 6 0 10 5 10 10 0 6 -4 10 -10 10 -5 0
-10 -4 -10 -10z"/>
<path d="M7495 5290 c-3 -5 -1 -10 4 -10 6 0 11 5 11 10 0 6 -2 10 -4 10 -3 0
-8 -4 -11 -10z"/>
<path d="M7730 5290 c0 -5 5 -10 11 -10 5 0 7 5 4 10 -3 6 -8 10 -11 10 -2 0
-4 -4 -4 -10z"/>
<path d="M8205 5290 c-3 -5 -1 -10 4 -10 6 0 11 5 11 10 0 6 -2 10 -4 10 -3 0
-8 -4 -11 -10z"/>
<path d="M5085 5238 c-3 -7 -6 -87 -7 -178 l-3 -165 -165 -5 -165 -5 190 -5
c105 -3 359 -3 565 0 l375 5 -335 5 -335 5 -3 58 -3 59 23 -16 c36 -25 89 -20
123 12 25 22 31 36 33 80 7 123 -64 194 -147 148 -21 -12 -27 -12 -39 0 -17
18 -101 19 -107 2z m173 -119 c3 -30 -18 -52 -42 -43 -16 6 -23 54 -9 68 16
16 48 1 51 -25z"/>
<path d="M5433 5243 c-10 -3 -13 -39 -13 -129 l0 -124 59 0 59 0 4 61 c5 68
25 94 66 84 21 -5 22 -3 22 55 0 67 -13 76 -59 44 -22 -16 -24 -16 -33 0 -9
16 -75 22 -105 9z"/>
<path d="M5677 5244 c-4 -4 -7 -63 -7 -131 l0 -123 60 0 61 0 -3 128 -3 127
-50 3 c-28 2 -54 0 -58 -4z"/>
<path d="M5873 5243 c-9 -3 -13 -33 -13 -98 0 -65 -4 -95 -12 -98 -10 -4 -10
-8 -2 -14 7 -4 13 -17 15 -28 4 -17 13 -20 62 -23 l57 -3 0 81 c0 63 3 82 15
87 25 9 30 -3 35 -85 l5 -77 55 0 55 0 3 101 c3 97 1 103 -24 133 -30 36 -75
42 -113 15 -22 -16 -24 -16 -33 0 -9 16 -75 22 -105 9z"/>
<path d="M6733 5243 c-10 -3 -13 -39 -13 -129 l0 -124 60 0 60 0 0 53 c0 63
17 91 56 92 28 2 29 4 32 58 3 50 1 57 -15 57 -10 0 -29 -7 -42 -16 -21 -15
-25 -15 -32 -2 -8 14 -78 21 -106 11z"/>
<path d="M6975 5238 c-3 -7 -6 -87 -7 -178 l-3 -165 -395 -5 -395 -5 445 -5
c245 -3 497 -3 560 0 l115 5 -100 5 -100 5 -3 54 c-3 48 -1 53 15 46 10 -5 37
-10 59 -13 35 -3 46 1 70 25 24 23 30 38 32 81 7 123 -64 194 -147 148 -21
-12 -27 -12 -39 0 -17 18 -101 19 -107 2z m173 -119 c4 -34 -22 -57 -43 -39
-16 13 -20 51 -8 64 16 16 48 1 51 -25z"/>
<path d="M3000 5040 c0 -5 5 -10 10 -10 6 0 10 5 10 10 0 6 -4 10 -10 10 -5 0
-10 -4 -10 -10z"/>
<path d="M3240 5040 c0 -5 5 -10 10 -10 6 0 10 5 10 10 0 6 -4 10 -10 10 -5 0
-10 -4 -10 -10z"/>
<path d="M5600 5040 c0 -5 5 -10 10 -10 6 0 10 5 10 10 0 6 -4 10 -10 10 -5 0
-10 -4 -10 -10z"/>
<path d="M7490 5040 c0 -5 5 -10 10 -10 6 0 10 5 10 10 0 6 -4 10 -10 10 -5 0
-10 -4 -10 -10z"/>
<path d="M7730 5040 c0 -5 5 -10 10 -10 6 0 10 5 10 10 0 6 -4 10 -10 10 -5 0
-10 -4 -10 -10z"/>
<path d="M8200 5040 c0 -5 5 -10 10 -10 6 0 10 5 10 10 0 6 -4 10 -10 10 -5 0
-10 -4 -10 -10z"/>
<path d="M5992 4907 c-18 -18 -32 -36 -32 -40 0 -4 29 -7 65 -7 36 0 65 4 65
8 0 4 -15 22 -33 40 l-33 32 -32 -33z"/>
<path d="M3005 4800 c3 -5 8 -10 11 -10 2 0 4 5 4 10 0 6 -5 10 -11 10 -5 0
-7 -4 -4 -10z"/>
<path d="M3715 4800 c3 -5 8 -10 11 -10 2 0 4 5 4 10 0 6 -5 10 -11 10 -5 0
-7 -4 -4 -10z"/>
<path d="M5130 4799 c0 -5 5 -7 10 -4 6 3 10 8 10 11 0 2 -4 4 -10 4 -5 0 -10
-5 -10 -11z"/>
<path d="M5610 4795 c19 -23 -5 -48 -32 -34 -24 13 -71 -14 -66 -38 7 -38 87
-43 89 -5 0 13 3 11 9 -5 11 -27 35 -30 48 -7 8 15 10 15 15 0 10 -25 66 -21
76 6 l8 22 5 -22 c5 -18 13 -22 46 -22 34 0 41 4 45 23 l4 22 2 -22 c1 -30 41
-33 41 -3 0 11 5 20 10 20 6 0 10 -9 10 -19 0 -18 7 -20 113 -18 92 2 112 5
112 17 0 9 -8 14 -22 13 -19 -2 -22 3 -25 40 -3 45 -30 61 -36 21 -2 -18 -9
-21 -35 -19 -18 1 -40 -2 -49 -7 -13 -6 -17 -3 -20 14 -4 32 -38 37 -38 6 -1
-21 -2 -22 -14 -5 -17 23 -33 22 -46 -4 -7 -13 -16 -17 -23 -12 -17 12 -70 8
-75 -5 -2 -8 -11 -7 -27 4 -18 12 -28 13 -44 5 -17 -9 -22 -8 -31 9 -6 11 -17
20 -25 20 -8 0 -15 5 -15 10 0 6 -5 10 -11 10 -8 0 -8 -5 1 -15z"/>
<path d="M5840 4799 c0 -5 5 -7 10 -4 6 3 10 8 10 11 0 2 -4 4 -10 4 -5 0 -10
-5 -10 -11z"/>
<path d="M6538 4790 c-12 -11 -18 -32 -18 -58 0 -36 3 -42 20 -42 11 0 23 7
26 15 4 8 12 15 20 15 7 0 17 8 23 17 12 23 -4 53 -29 53 -10 0 -20 4 -22 9
-1 4 -11 1 -20 -9z"/>
<path d="M7020 4799 c0 -5 5 -7 10 -4 6 3 10 8 10 11 0 2 -4 4 -10 4 -5 0 -10
-5 -10 -11z"/>
<path d="M7730 4799 c0 -5 5 -7 10 -4 6 3 10 8 10 11 0 2 -4 4 -10 4 -5 0 -10
-5 -10 -11z"/>
<path d="M6868 4794 c-4 -3 -4 -13 -1 -22 5 -12 1 -14 -17 -9 -29 8 -63 -10
-56 -29 3 -8 3 -14 0 -14 -2 0 -9 12 -14 26 -8 19 -15 24 -28 19 -9 -4 -21 -7
-27 -6 -5 0 -25 2 -43 4 -50 6 -81 -34 -48 -62 16 -13 335 -12 353 1 6 5 14 5
18 -1 3 -6 35 -10 71 -10 55 1 65 4 62 18 -2 9 -12 16 -23 16 -11 0 -21 8 -23
18 -2 9 -7 17 -10 18 -4 0 -19 2 -35 4 -15 2 -33 -2 -40 -9 -10 -11 -16 -11
-34 1 -17 11 -26 12 -42 3 -21 -11 -23 -9 -25 20 -1 15 -27 25 -38 14z"/>
<path d="M5010 4776 c0 -6 7 -20 15 -30 8 -11 15 -28 15 -38 0 -11 7 -18 20
-18 13 0 20 7 20 18 0 10 7 27 15 38 25 33 18 42 -35 42 -31 0 -50 -5 -50 -12z"/>
<path d="M5410 4740 c0 -44 3 -50 20 -50 11 0 23 7 26 15 4 8 12 15 20 15 20
0 34 31 23 52 -7 13 -22 18 -49 18 l-40 0 0 -50z"/>
<path d="M6206 4774 c-19 -18 -21 -55 -4 -72 17 -17 73 -15 89 4 11 14 13 14
21 0 12 -22 64 -20 77 2 10 16 10 16 11 0 0 -26 40 -23 47 2 3 11 9 20 14 20
5 0 9 7 9 15 0 16 -15 19 -103 17 -38 -1 -66 3 -80 13 -28 19 -61 19 -81 -1z"/>
<path d="M5118 4759 c-35 -20 -15 -69 27 -69 12 0 26 5 33 12 9 9 15 9 24 0
18 -18 65 -15 77 6 10 16 10 16 11 0 0 -11 8 -18 20 -18 11 0 20 5 20 12 0 6
7 20 17 30 9 10 13 21 10 25 -6 5 -105 6 -172 2 -11 -1 -27 1 -35 4 -8 4 -23
2 -32 -4z"/>
<path d="M2770 4570 c0 -5 5 -10 11 -10 5 0 7 5 4 10 -3 6 -8 10 -11 10 -2 0
-4 -4 -4 -10z"/>
<path d="M3240 4570 c0 -5 5 -10 11 -10 5 0 7 5 4 10 -3 6 -8 10 -11 10 -2 0
-4 -4 -4 -10z"/>
<path d="M3715 4570 c-3 -5 -1 -10 4 -10 6 0 11 5 11 10 0 6 -2 10 -4 10 -3 0
-8 -4 -11 -10z"/>
<path d="M4185 4570 c-3 -5 -1 -10 4 -10 6 0 11 5 11 10 0 6 -2 10 -4 10 -3 0
-8 -4 -11 -10z"/>
<path d="M5605 4570 c-3 -5 -1 -10 4 -10 6 0 11 5 11 10 0 6 -2 10 -4 10 -3 0
-8 -4 -11 -10z"/>
<path d="M6075 4571 c-3 -5 -1 -12 5 -16 5 -3 10 1 10 9 0 18 -6 21 -15 7z"/>
<path d="M6785 4570 c-3 -5 -1 -10 4 -10 6 0 11 5 11 10 0 6 -2 10 -4 10 -3 0
-8 -4 -11 -10z"/>
<path d="M7495 4570 c-3 -5 -1 -10 4 -10 6 0 11 5 11 10 0 6 -2 10 -4 10 -3 0
-8 -4 -11 -10z"/>
<path d="M7971 4564 c0 -11 3 -14 6 -6 3 7 2 16 -1 19 -3 4 -6 -2 -5 -13z"/>
<path d="M3000 4330 c0 -5 5 -10 10 -10 6 0 10 5 10 10 0 6 -4 10 -10 10 -5 0
-10 -4 -10 -10z"/>
<path d="M3710 4330 c0 -5 5 -10 10 -10 6 0 10 5 10 10 0 6 -4 10 -10 10 -5 0
-10 -4 -10 -10z"/>
<path d="M4420 4330 c0 -5 5 -10 10 -10 6 0 10 5 10 10 0 6 -4 10 -10 10 -5 0
-10 -4 -10 -10z"/>
<path d="M5130 4330 c0 -5 5 -10 10 -10 6 0 10 5 10 10 0 6 -4 10 -10 10 -5 0
-10 -4 -10 -10z"/>
<path d="M5600 4330 c0 -5 5 -10 10 -10 6 0 10 5 10 10 0 6 -4 10 -10 10 -5 0
-10 -4 -10 -10z"/>
<path d="M5840 4330 c0 -5 5 -10 10 -10 6 0 10 5 10 10 0 6 -4 10 -10 10 -5 0
-10 -4 -10 -10z"/>
<path d="M6310 4330 c0 -5 5 -10 10 -10 6 0 10 5 10 10 0 6 -4 10 -10 10 -5 0
-10 -4 -10 -10z"/>
<path d="M7020 4330 c0 -5 5 -10 10 -10 6 0 10 5 10 10 0 6 -4 10 -10 10 -5 0
-10 -4 -10 -10z"/>
<path d="M7730 4330 c0 -5 5 -10 10 -10 6 0 10 5 10 10 0 6 -4 10 -10 10 -5 0
-10 -4 -10 -10z"/>
<path d="M8200 4330 c0 -5 5 -10 10 -10 6 0 10 5 10 10 0 6 -4 10 -10 10 -5 0
-10 -4 -10 -10z"/>
<path d="M3005 4090 c3 -5 8 -10 11 -10 2 0 4 5 4 10 0 6 -5 10 -11 10 -5 0
-7 -4 -4 -10z"/>
<path d="M3240 4089 c0 -5 5 -7 10 -4 6 3 10 8 10 11 0 2 -4 4 -10 4 -5 0 -10
-5 -10 -11z"/>
<path d="M3715 4090 c3 -5 8 -10 11 -10 2 0 4 5 4 10 0 6 -5 10 -11 10 -5 0
-7 -4 -4 -10z"/>
<path d="M3950 4089 c0 -5 5 -7 10 -4 6 3 10 8 10 11 0 2 -4 4 -10 4 -5 0 -10
-5 -10 -11z"/>
<path d="M4185 4090 c3 -5 8 -10 11 -10 2 0 4 5 4 10 0 6 -5 10 -11 10 -5 0
-7 -4 -4 -10z"/>
<path d="M4660 4089 c0 -5 5 -7 10 -4 6 3 10 8 10 11 0 2 -4 4 -10 4 -5 0 -10
-5 -10 -11z"/>
<path d="M4895 4090 c3 -5 8 -10 11 -10 2 0 4 5 4 10 0 6 -5 10 -11 10 -5 0
-7 -4 -4 -10z"/>
<path d="M5130 4089 c0 -5 5 -7 10 -4 6 3 10 8 10 11 0 2 -4 4 -10 4 -5 0 -10
-5 -10 -11z"/>
<path d="M5605 4090 c3 -5 8 -10 11 -10 2 0 4 5 4 10 0 6 -5 10 -11 10 -5 0
-7 -4 -4 -10z"/>
<path d="M5840 4089 c0 -5 5 -7 10 -4 6 3 10 8 10 11 0 2 -4 4 -10 4 -5 0 -10
-5 -10 -11z"/>
<path d="M6550 4089 c0 -5 5 -7 10 -4 6 3 10 8 10 11 0 2 -4 4 -10 4 -5 0 -10
-5 -10 -11z"/>
<path d="M7020 4089 c0 -5 5 -7 10 -4 6 3 10 8 10 11 0 2 -4 4 -10 4 -5 0 -10
-5 -10 -11z"/>
<path d="M7495 4090 c3 -5 8 -10 11 -10 2 0 4 5 4 10 0 6 -5 10 -11 10 -5 0
-7 -4 -4 -10z"/>
<path d="M3005 3860 c-3 -5 -1 -10 4 -10 6 0 11 5 11 10 0 6 -2 10 -4 10 -3 0
-8 -4 -11 -10z"/>
<path d="M3240 3860 c0 -5 5 -10 11 -10 5 0 7 5 4 10 -3 6 -8 10 -11 10 -2 0
-4 -4 -4 -10z"/>
<path d="M3715 3860 c-3 -5 -1 -10 4 -10 6 0 11 5 11 10 0 6 -2 10 -4 10 -3 0
-8 -4 -11 -10z"/>
<path d="M5130 3860 c0 -5 5 -10 11 -10 5 0 7 5 4 10 -3 6 -8 10 -11 10 -2 0
-4 -4 -4 -10z"/>
<path d="M5605 3860 c-3 -5 -1 -10 4 -10 6 0 11 5 11 10 0 6 -2 10 -4 10 -3 0
-8 -4 -11 -10z"/>
<path d="M5840 3860 c0 -5 5 -10 11 -10 5 0 7 5 4 10 -3 6 -8 10 -11 10 -2 0
-4 -4 -4 -10z"/>
<path d="M7020 3860 c0 -5 5 -10 11 -10 5 0 7 5 4 10 -3 6 -8 10 -11 10 -2 0
-4 -4 -4 -10z"/>
<path d="M7495 3860 c-3 -5 -1 -10 4 -10 6 0 11 5 11 10 0 6 -2 10 -4 10 -3 0
-8 -4 -11 -10z"/>
<path d="M7971 3854 c0 -11 3 -14 6 -6 3 7 2 16 -1 19 -3 4 -6 -2 -5 -13z"/>
<path d="M3000 3620 c0 -5 5 -10 10 -10 6 0 10 5 10 10 0 6 -4 10 -10 10 -5 0
-10 -4 -10 -10z"/>
<path d="M3240 3620 c0 -5 5 -10 10 -10 6 0 10 5 10 10 0 6 -4 10 -10 10 -5 0
-10 -4 -10 -10z"/>
<path d="M3710 3620 c0 -5 5 -10 10 -10 6 0 10 5 10 10 0 6 -4 10 -10 10 -5 0
-10 -4 -10 -10z"/>
<path d="M4420 3620 c0 -5 5 -10 10 -10 6 0 10 5 10 10 0 6 -4 10 -10 10 -5 0
-10 -4 -10 -10z"/>
<path d="M5130 3620 c0 -5 5 -10 10 -10 6 0 10 5 10 10 0 6 -4 10 -10 10 -5 0
-10 -4 -10 -10z"/>
<path d="M5600 3620 c0 -5 5 -10 10 -10 6 0 10 5 10 10 0 6 -4 10 -10 10 -5 0
-10 -4 -10 -10z"/>
<path d="M5840 3620 c0 -5 5 -10 10 -10 6 0 10 5 10 10 0 6 -4 10 -10 10 -5 0
-10 -4 -10 -10z"/>
<path d="M6310 3620 c0 -5 5 -10 10 -10 6 0 10 5 10 10 0 6 -4 10 -10 10 -5 0
-10 -4 -10 -10z"/>
<path d="M7020 3620 c0 -5 5 -10 10 -10 6 0 10 5 10 10 0 6 -4 10 -10 10 -5 0
-10 -4 -10 -10z"/>
<path d="M7495 3620 c3 -5 8 -10 11 -10 2 0 4 5 4 10 0 6 -5 10 -11 10 -5 0
-7 -4 -4 -10z"/>
<path d="M7730 3620 c0 -5 5 -10 10 -10 6 0 10 5 10 10 0 6 -4 10 -10 10 -5 0
-10 -4 -10 -10z"/>
<path d="M8200 3620 c0 -5 5 -10 10 -10 6 0 10 5 10 10 0 6 -4 10 -10 10 -5 0
-10 -4 -10 -10z"/>
<path d="M8019 3080 c-69 -21 -109 -75 -109 -149 0 -39 -2 -41 -30 -41 -29 0
-30 -1 -30 -50 0 -49 1 -50 30 -50 l30 0 0 -170 0 -170 70 0 70 0 0 170 0 170
46 0 45 0 -3 48 -3 47 -42 3 c-40 3 -43 5 -43 32 0 34 34 62 71 58 22 -3 24 1
27 48 3 46 1 52 -20 58 -30 8 -76 6 -109 -4z"/>
<path d="M4160 2765 l0 -315 70 0 70 0 0 315 0 315 -70 0 -70 0 0 -315z"/>
<path d="M3010 3025 l0 -45 75 0 75 0 0 45 0 45 -75 0 -75 0 0 -45z"/>
<path d="M6600 3025 l0 -45 75 0 75 0 0 45 0 45 -75 0 -75 0 0 -45z"/>
<path d="M2592 3014 c-64 -32 -92 -74 -92 -140 0 -91 27 -117 195 -184 106
-43 130 -70 102 -114 -15 -23 -24 -26 -73 -26 -45 0 -59 4 -79 25 -14 13 -25
33 -25 45 0 18 -6 20 -70 20 -66 0 -70 -1 -70 -23 0 -45 43 -111 93 -141 42
-26 61 -31 138 -34 81 -4 94 -2 143 22 70 34 102 92 92 163 -11 83 -53 120
-195 172 -96 35 -111 45 -111 76 0 37 32 57 86 53 42 -3 51 -7 69 -35 19 -31
22 -32 89 -33 66 0 68 1 62 23 -3 12 -6 27 -6 34 0 22 -64 86 -105 104 -63 29
-177 26 -243 -7z"/>
<path d="M5037 3033 c-4 -3 -7 -136 -7 -295 l0 -288 70 0 70 0 0 295 0 295
-63 0 c-35 0 -67 -3 -70 -7z"/>
<path d="M3796 2890 c-76 -24 -120 -106 -119 -225 1 -115 34 -180 109 -211 45
-19 73 -18 117 5 34 17 37 17 37 2 0 -56 -67 -82 -150 -58 -58 17 -60 16 -63
-53 -2 -41 -1 -43 38 -57 26 -9 67 -13 116 -11 62 2 83 8 117 31 77 50 82 72
82 342 l0 235 -59 0 c-51 0 -61 -3 -66 -20 -6 -20 -6 -20 -33 0 -33 24 -86 33
-126 20z m132 -122 c8 -7 12 -41 12 -103 l0 -93 -31 -11 c-61 -21 -89 15 -89
114 0 57 3 69 25 91 26 25 52 26 83 2z"/>
<path d="M3017 2884 c-4 -4 -7 -103 -7 -221 l0 -213 75 0 75 0 -2 218 -3 217
-65 3 c-36 2 -69 0 -73 -4z"/>
<path d="M3230 2670 l0 -220 70 0 70 0 0 153 c0 167 3 177 55 177 52 0 55 -10
55 -177 l0 -153 76 0 76 0 -4 173 c-3 157 -5 175 -25 208 -12 19 -34 41 -48
47 -44 20 -108 15 -148 -12 l-36 -25 -3 22 c-3 20 -10 22 -70 25 l-68 3 0
-221z"/>
<path d="M4468 2870 c-39 -21 -70 -59 -88 -106 -16 -42 -14 -164 3 -204 18
-42 71 -95 110 -109 65 -25 240 -1 253 33 3 7 -3 29 -11 50 -14 32 -20 37 -38
31 -12 -4 -46 -9 -74 -12 -59 -6 -96 11 -106 46 -5 20 -1 21 119 21 l124 0 0
63 c-1 96 -43 170 -113 196 -45 18 -137 13 -179 -9z m142 -109 c22 -42 14 -51
-46 -51 -53 0 -55 1 -48 23 10 35 24 47 55 47 18 0 32 -7 39 -19z"/>
<path d="M5260 2670 l0 -220 70 0 70 0 0 153 c0 167 3 177 55 177 52 0 55 -10
55 -177 l0 -153 70 0 70 0 0 173 c0 188 -7 215 -65 253 -36 23 -127 15 -158
-14 -25 -24 -37 -20 -37 10 0 16 -9 18 -65 18 l-65 0 0 -220z"/>
<path d="M6228 2870 c-68 -37 -108 -112 -108 -205 0 -140 80 -225 211 -225
116 0 188 59 209 171 21 112 -22 219 -104 259 -56 27 -156 27 -208 0z m146
-106 c23 -22 29 -56 24 -126 -5 -69 -23 -91 -73 -86 -42 4 -67 55 -62 125 5
67 28 103 67 103 15 0 36 -7 44 -16z"/>
<path d="M6607 2884 c-4 -4 -7 -103 -7 -221 l0 -213 75 0 75 0 -2 218 -3 217
-65 3 c-36 2 -69 0 -73 -4z"/>
<path d="M6905 2867 c-140 -79 -140 -325 0 -404 58 -33 153 -32 210 2 45 26
75 74 75 119 0 25 -2 26 -65 26 -56 0 -65 -3 -65 -18 0 -47 -69 -59 -97 -16
-23 36 -23 142 1 178 14 22 24 27 49 24 26 -2 34 -9 42 -35 9 -33 10 -33 72
-33 l63 0 0 31 c0 45 -37 103 -80 128 -53 30 -150 29 -205 -2z"/>
<path d="M7344 2876 c-42 -19 -90 -80 -103 -132 -33 -129 10 -244 107 -286 70
-31 216 -17 269 26 2 2 -5 22 -14 45 -14 36 -20 41 -37 36 -12 -4 -47 -9 -79
-12 -51 -5 -61 -3 -83 18 -46 44 -35 49 102 49 l127 0 -6 69 c-7 82 -34 140
-79 173 -41 28 -155 37 -204 14z m124 -108 c5 -7 13 -23 16 -35 7 -22 5 -23
-48 -23 -61 0 -68 9 -40 48 17 24 56 29 72 10z"/>
<path d="M8268 2870 c-68 -37 -108 -112 -108 -205 0 -140 80 -225 211 -225
116 0 188 59 209 171 21 112 -22 219 -104 259 -56 27 -156 27 -208 0z m146
-106 c23 -22 29 -56 24 -126 -5 -69 -23 -91 -73 -86 -42 4 -67 55 -62 125 5
67 28 103 67 103 15 0 36 -7 44 -16z"/>
<path d="M8640 2670 l0 -220 70 0 70 0 0 145 c0 161 2 165 73 165 32 0 35 3
41 38 3 20 6 49 6 65 0 25 -3 27 -38 27 -26 0 -45 -7 -57 -20 -10 -11 -22 -20
-27 -20 -4 0 -8 9 -8 20 0 18 -7 20 -65 20 l-65 0 0 -220z"/>
<path d="M5690 2868 c0 -7 30 -104 67 -215 l68 -203 71 0 72 0 68 203 c37 111
69 208 72 215 3 9 -15 12 -72 12 -70 0 -76 -2 -81 -22 -3 -13 -16 -72 -29
-131 -14 -60 -26 -110 -28 -112 -2 -2 -17 56 -33 130 l-30 135 -72 0 c-51 0
-73 -4 -73 -12z"/>
<path d="M3130 1465 l0 -315 70 0 70 0 0 315 0 315 -70 0 -70 0 0 -315z"/>
<path d="M4340 1465 l0 -315 70 0 70 0 0 315 0 315 -70 0 -70 0 0 -315z"/>
<path d="M6150 1465 l0 -315 70 0 70 0 0 315 0 315 -70 0 -70 0 0 -315z"/>
<path d="M3650 1725 l0 -45 70 0 70 0 0 45 0 45 -70 0 -70 0 0 -45z"/>
<path d="M8110 1659 l0 -110 -26 20 c-37 29 -110 28 -154 -1 -55 -38 -83 -104
-83 -201 -1 -99 27 -168 82 -204 44 -30 113 -31 159 -3 l34 21 5 -21 c5 -17
13 -20 64 -20 l59 0 0 315 0 315 -70 0 -70 0 0 -111z m-19 -189 c17 -9 19 -22
19 -103 0 -103 -7 -117 -56 -117 -47 0 -64 29 -64 108 0 104 37 146 101 112z"/>
<path d="M1960 1445 l0 -295 72 0 71 0 -6 188 -5 187 29 -85 c16 -47 45 -131
65 -188 l37 -103 50 3 50 3 59 175 c32 96 61 177 64 180 3 3 3 -77 -1 -177
l-8 -183 77 0 76 0 -2 293 -3 292 -86 3 c-61 2 -89 -1 -96 -10 -6 -7 -36 -95
-68 -195 -32 -101 -61 -183 -65 -183 -3 0 -34 88 -68 195 l-62 195 -90 0 -90
0 0 -295z"/>
<path d="M5316 1725 c-22 -8 -55 -29 -74 -48 -28 -28 -36 -45 -40 -85 -9 -97
34 -143 194 -202 86 -32 114 -53 114 -85 0 -35 -31 -55 -86 -55 -59 0 -89 18
-97 60 -6 30 -7 30 -77 30 -77 0 -77 0 -59 -62 24 -89 126 -143 257 -136 131
6 192 53 200 153 3 36 -1 62 -12 84 -20 37 -83 85 -134 102 -93 29 -152 62
-159 87 -9 36 26 62 83 62 44 0 84 -27 84 -57 0 -9 19 -13 70 -13 81 0 85 6
48 80 -33 65 -105 100 -202 100 -39 -1 -89 -7 -110 -15z"/>
<path d="M7133 1715 c-95 -48 -133 -127 -133 -275 0 -148 38 -227 133 -275 40
-20 66 -25 121 -25 88 0 139 22 189 81 52 60 60 95 56 241 -4 122 -5 128 -34
169 -17 24 -50 57 -74 74 -38 26 -52 30 -124 33 -72 3 -88 0 -134 -23z m175
-101 c41 -28 52 -66 52 -174 0 -138 -29 -190 -108 -190 -81 0 -107 45 -107
190 0 110 14 157 52 179 27 16 86 13 111 -5z"/>
<path d="M3370 1635 c0 -54 0 -55 -30 -55 -29 0 -30 -1 -30 -50 0 -49 1 -50
30 -50 l30 0 0 -107 c0 -130 11 -174 51 -207 26 -22 40 -26 99 -26 38 0 71 4
74 9 3 5 3 29 0 54 -6 42 -9 46 -38 49 l-31 3 -3 113 -3 112 36 0 35 0 0 50 0
50 -35 0 -35 0 0 55 0 55 -75 0 -75 0 0 -55z"/>
<path d="M3650 1370 l0 -220 70 0 70 0 0 220 0 220 -70 0 -70 0 0 -220z"/>
<path d="M4048 1571 c-30 -15 -38 -16 -42 -5 -4 10 -25 14 -71 14 l-65 0 0
-300 0 -300 70 0 70 0 0 94 0 94 37 -19 c49 -25 79 -24 133 4 77 38 113 143
92 265 -13 78 -44 126 -98 152 -50 25 -80 25 -126 1z m51 -108 c40 -33 50
-154 16 -199 -15 -21 -67 -23 -90 -4 -13 10 -15 31 -13 104 3 85 4 91 28 103
32 16 34 16 59 -4z"/>
<path d="M4652 1573 c-47 -23 -79 -66 -98 -130 -33 -115 7 -233 96 -281 39
-21 55 -23 125 -20 67 4 126 20 153 43 2 1 -5 21 -14 45 -14 35 -20 41 -38 35
-12 -4 -47 -9 -78 -12 -51 -5 -59 -3 -82 20 -14 15 -26 31 -26 37 0 6 45 10
125 10 l125 0 0 53 c0 101 -39 175 -107 203 -44 19 -140 17 -181 -3z m138
-112 c22 -42 14 -51 -45 -51 -60 0 -67 9 -39 48 20 28 69 30 84 3z"/>
<path d="M5783 1570 c-46 -24 -70 -54 -80 -100 l-5 -30 68 0 c62 0 70 2 79 23
11 25 49 34 71 17 7 -7 14 -25 14 -40 0 -27 -2 -28 -67 -35 -125 -13 -180 -63
-170 -153 7 -66 49 -104 121 -110 44 -4 63 0 92 17 29 18 39 19 45 9 5 -7 9
-17 9 -21 0 -4 30 -7 68 -5 54 2 66 6 63 18 -2 8 -7 86 -10 172 -7 171 -12
185 -75 232 -42 32 -166 35 -223 6z m145 -277 c-2 -31 -8 -39 -31 -47 -35 -13
-62 2 -62 35 0 26 34 49 73 49 21 0 23 -4 20 -37z"/>
<path d="M6474 1576 c-72 -32 -113 -107 -114 -209 0 -146 76 -227 213 -227 61
0 151 23 162 41 3 5 0 27 -6 49 -11 35 -16 40 -33 35 -12 -4 -49 -9 -82 -12
-54 -5 -65 -2 -83 16 -44 44 -31 51 99 51 l120 0 0 67 c0 131 -66 203 -186
203 -32 -1 -73 -7 -90 -14z m124 -108 c7 -7 12 -22 12 -35 0 -21 -4 -23 -50
-23 -53 0 -61 10 -40 51 12 22 59 26 78 7z"/>
<path d="M7570 1370 l0 -220 70 0 70 0 0 145 c0 161 2 165 73 165 32 0 35 3
41 38 3 20 6 49 6 65 0 25 -3 27 -38 27 -26 0 -45 -7 -57 -20 -10 -11 -22 -20
-27 -20 -4 0 -8 9 -8 20 0 18 -7 20 -65 20 l-65 0 0 -220z"/>
<path d="M8422 1573 c-47 -23 -79 -66 -98 -130 -33 -115 7 -233 96 -281 39
-21 55 -23 125 -20 67 4 126 20 153 43 2 1 -5 21 -14 45 -14 35 -20 41 -38 35
-12 -4 -47 -9 -78 -12 -51 -5 -59 -3 -82 20 -14 15 -26 31 -26 37 0 6 45 10
125 10 l125 0 0 53 c0 101 -39 175 -107 203 -44 19 -140 17 -181 -3z m138
-112 c22 -42 14 -51 -45 -51 -60 0 -67 9 -39 48 20 28 69 30 84 3z"/>
<path d="M8760 1370 l0 -220 70 0 70 0 0 145 c0 161 2 165 73 165 32 0 35 3
41 38 3 20 6 49 6 65 0 25 -3 27 -38 27 -26 0 -45 -7 -57 -20 -10 -11 -22 -20
-27 -20 -4 0 -8 9 -8 20 0 18 -7 20 -65 20 l-65 0 0 -220z"/>
<path d="M9133 1570 c-51 -23 -83 -70 -83 -123 0 -55 47 -100 126 -122 92 -25
104 -32 104 -59 0 -19 -7 -26 -30 -31 -35 -8 -80 15 -80 40 0 12 -14 15 -65
15 -59 0 -65 -2 -65 -21 0 -31 28 -72 67 -99 27 -19 52 -25 105 -28 125 -7
208 45 208 132 0 73 -43 111 -150 136 -52 12 -90 33 -90 51 0 5 11 16 24 24
27 18 76 6 76 -20 0 -12 14 -15 70 -15 80 0 86 9 50 68 -27 45 -89 72 -165 72
-38 0 -76 -8 -102 -20z"/>
<path d="M2660 1418 c0 -185 13 -234 69 -262 42 -22 119 -20 159 4 40 25 42
25 42 0 0 -19 5 -21 63 -18 l62 3 3 218 2 217 -75 0 -75 0 0 -159 c0 -174 1
-171 -61 -171 -42 0 -49 27 -49 191 l0 139 -70 0 -70 0 0 -162z"/>
</g>
</svg>
